<svg width="67" height="26" viewBox="0 0 67 26" fill="none" xmlns="http://www.w3.org/2000/svg">
<g id="image 82 (traced)">
<g id="Yellow">
<path id="Vector" d="M42.0792 2.84267C41.2365 3.13156 40.7549 3.68308 40.5403 4.59702C40.4827 4.84389 40.467 5.37964 40.467 6.99217C40.4723 9.06166 40.4723 9.07742 40.5979 9.43459C40.6712 9.63419 40.7288 9.82853 40.734 9.86005C40.7392 9.89682 40.7602 9.92833 40.7811 9.92833C40.802 9.92833 40.8387 9.9756 40.8544 10.0334C40.8858 10.1384 41.5087 10.816 41.5087 10.7477C41.5087 10.7267 41.5767 10.7582 41.6605 10.816C41.739 10.8738 42.0374 10.9841 42.32 11.0576C42.8225 11.1889 42.8487 11.1889 44.9424 11.1889H47.0571V16.5202V21.8516H47.2403H47.4235V16.3101V10.7687H45.0471C42.8225 10.7687 42.6498 10.7635 42.3357 10.6637C41.9798 10.5534 41.6448 10.3433 41.3935 10.0649C41.2051 9.86005 40.912 9.27176 40.9591 9.19823C40.9748 9.16671 40.9643 9.14045 40.9277 9.14045C40.891 9.14045 40.8806 9.08793 40.9015 8.98288C40.9172 8.89358 40.912 8.8253 40.891 8.8253C40.8701 8.8253 40.8544 7.95338 40.8544 6.88187C40.8544 5.8156 40.8649 4.93843 40.8858 4.93843C40.9015 4.93843 40.912 4.84914 40.912 4.74409C40.912 4.63904 40.9381 4.54449 40.9748 4.52873C41.0114 4.51823 41.0271 4.48671 41.0114 4.4657C40.9591 4.38166 41.247 3.88793 41.472 3.66207C41.7285 3.40469 42.2467 3.13682 42.4875 3.13156C42.5817 3.12631 42.6602 3.11055 42.6602 3.08954C42.6602 3.06853 43.4245 3.05277 44.3614 3.05277C45.2984 3.05277 46.0626 3.07379 46.0626 3.10005C46.0626 3.12106 46.1045 3.13156 46.1568 3.12106C46.2563 3.0948 46.9158 3.40469 47.0833 3.55702C47.3659 3.80914 47.612 4.2451 47.6695 4.58126C47.7167 4.85439 47.7167 5.94692 47.6695 6.18853C47.612 6.49843 47.3188 6.92914 47.01 7.17601C46.6907 7.42813 45.9945 7.70126 45.7695 7.65399C45.7014 7.64348 45.6438 7.65399 45.6438 7.675C45.6438 7.70126 44.7383 7.72227 43.6286 7.72227H41.6134V8.26853C41.6134 8.60469 41.6395 8.89358 41.6867 9.0249C41.7285 9.14045 41.7547 9.2455 41.739 9.26126C41.7285 9.27176 41.807 9.38732 41.9222 9.51338C42.142 9.7655 42.4927 9.97035 42.7702 10.0019C42.8696 10.0124 44.1311 10.0229 45.581 10.0281L48.2087 10.0334L48.1982 15.9425L48.1825 21.8516H48.3814H48.5751V15.7586V9.6657H48.3552C48.2296 9.6657 46.9367 9.6657 45.4763 9.6657C44.0107 9.6657 42.8173 9.64995 42.8173 9.62894C42.8173 9.60267 42.7545 9.58166 42.6812 9.57641C42.4823 9.56591 42.2834 9.40308 42.1525 9.14045C42.0583 8.95661 42.0321 8.82005 42.0321 8.5049V8.0952L44.0631 8.07419C46.0469 8.05843 46.094 8.05318 46.4552 7.92712C46.8111 7.80631 47.2246 7.5857 47.256 7.50166C47.2665 7.48065 47.2979 7.45964 47.3241 7.45964C47.3869 7.45964 47.5806 7.2653 47.5806 7.19702C47.5806 7.1655 47.6015 7.14449 47.6277 7.14449C47.68 7.14449 47.9731 6.55096 48.0412 6.30409C48.0674 6.20429 48.0778 6.05722 48.0674 5.97318C48.0569 5.89439 48.0726 5.83136 48.104 5.83136C48.1668 5.83136 48.1773 5.01197 48.1092 4.96995C48.0831 4.95419 48.0674 4.81762 48.0674 4.6653C48.0726 4.4657 48.0307 4.29762 47.926 4.07176C47.6381 3.43621 47.3555 3.15783 46.7064 2.86894L46.3819 2.72712L44.4295 2.71661L42.477 2.70611L42.0792 2.84267Z" fill="white"/>
<path id="Vector_2" d="M44.1258 3.8356C43.0056 3.85661 42.4822 3.88288 42.3775 3.93015C42.2885 3.96692 42.121 4.10348 42.0006 4.22954C41.6761 4.57621 41.6133 4.87035 41.6133 6.0049V6.93459L43.6599 6.9451C44.7853 6.9556 45.717 6.9451 45.7275 6.92409C45.7432 6.90308 45.827 6.88732 45.9212 6.89257C46.0154 6.89782 46.1672 6.8558 46.2614 6.80853C46.5022 6.68247 46.8477 6.3253 46.8477 6.19924C46.8477 6.14146 46.8686 6.09419 46.8895 6.09419C46.9157 6.09419 46.9366 5.78429 46.9366 5.41136C46.9366 5.03318 46.9157 4.72853 46.8895 4.72853C46.8634 4.72853 46.8581 4.70227 46.8738 4.67601C46.8895 4.64449 46.8791 4.62348 46.8529 4.62348C46.8215 4.62348 46.7953 4.58671 46.7953 4.54469C46.7953 4.50267 46.7534 4.41863 46.7063 4.3556C46.5755 4.20328 46.1881 3.9354 46.1462 3.97742C46.1305 3.99843 46.1148 3.98793 46.1148 3.96166C46.1148 3.9354 46.0416 3.90389 45.9473 3.89863C45.8531 3.88813 45.7641 3.86712 45.7484 3.84611C45.7327 3.8251 45.0052 3.81985 44.1258 3.8356ZM45.7746 4.26631C46.0102 4.31358 46.1253 4.37136 46.2719 4.51843C46.4917 4.73904 46.4812 4.70752 46.5179 5.32732C46.5493 5.9156 46.4603 6.19399 46.1777 6.36732C45.984 6.48813 45.963 6.48813 44.0106 6.50389L42.032 6.51964V5.79479C42.032 5.3956 42.0582 4.98065 42.0896 4.87035C42.1577 4.61298 42.4298 4.3451 42.6916 4.27156C42.9795 4.19277 45.3873 4.18752 45.7746 4.26631Z" fill="white"/>
<path id="Vector_3" d="M29.5952 15.652C29.5952 15.9829 29.6004 16.1195 29.6109 15.9514C29.6214 15.7885 29.6214 15.5154 29.6109 15.3473C29.6004 15.1845 29.5952 15.3211 29.5952 15.652Z" fill="white"/>
</g>
<rect id="Rectangle 498" width="11.9662" height="11.9662" rx="4" transform="matrix(0.705882 -0.70833 0.705882 0.70833 1.22656 11.2461)" fill="white"/>
<rect id="Rectangle 499" width="12.0442" height="12.0442" rx="4" transform="matrix(0.705882 -0.70833 0.705882 0.70833 8.99048 16.0703)" fill="white" fill-opacity="0.65"/>
<rect id="Rectangle 500" width="9.45822" height="9.45822" rx="4" transform="matrix(0.705882 -0.70833 0.705882 0.70833 10.2026 8.23828)" fill="white" fill-opacity="0.58"/>
<g id="Group 1261152308">
<path id="Vector_4" d="M29.6953 2.77215L29.4364 2.78779V7.01174V11.2305H29.743H30.0497V7.04303C30.0497 4.74332 30.0224 2.83473 29.9951 2.80865C29.9679 2.77736 29.8316 2.76172 29.6953 2.77215Z" fill="white"/>
<path id="Vector_5" d="M33.5769 2.79006C33.5666 2.81094 33.5253 2.8266 33.4943 2.81616C33.4582 2.81094 33.3498 2.84225 33.2466 2.88923C33.1433 2.93621 33.0092 2.98841 32.9472 3.00929C32.8182 3.05105 32.7614 3.0928 32.364 3.43731C32.2247 3.56259 32.1266 3.66176 32.1472 3.66176C32.1679 3.66176 32.1369 3.70352 32.0853 3.7505C31.8995 3.92275 31.4815 5.01891 31.6053 5.01891C31.6311 5.01891 31.6518 6.29254 31.6518 8.12469V11.2305H31.8324H32.0079L32.0234 8.03073C32.0389 5.01891 32.044 4.82578 32.1369 4.62743C32.1885 4.51259 32.235 4.38731 32.2401 4.35078C32.2505 4.20984 32.7253 3.69308 33.0298 3.48951C33.3962 3.23374 33.7008 3.1972 35.2491 3.19198C36.0181 3.19198 36.6633 3.21286 36.6787 3.23896C36.6942 3.25984 36.7665 3.2755 36.8387 3.27028C36.911 3.25984 36.9678 3.2755 36.9678 3.3016C36.9678 3.33292 36.9884 3.34336 37.0142 3.32248C37.04 3.30682 37.0762 3.31726 37.0968 3.34858C37.1174 3.37989 37.1484 3.39033 37.1742 3.37467C37.2 3.35901 37.2671 3.39033 37.3291 3.45297C37.3858 3.51039 37.4529 3.55737 37.4736 3.55737C37.5819 3.55737 38.0671 4.15764 38.2219 4.47605L38.3871 4.83622L38.4026 8.03073L38.4181 11.2305H38.5935H38.7742L38.7845 8.01507C38.7948 6.24556 38.7845 4.78924 38.7639 4.7788C38.7484 4.76836 38.7174 4.65874 38.6968 4.53347C38.6761 4.41341 38.6245 4.2516 38.5884 4.1733C38.5471 4.09501 38.5161 4.01149 38.5213 3.99583C38.5213 3.97495 38.4903 3.93841 38.4439 3.91231C38.3974 3.88621 38.3613 3.83402 38.3613 3.79748C38.3613 3.75572 38.3252 3.70874 38.2787 3.69308C38.2323 3.67742 38.2168 3.63566 38.2374 3.59913C38.2581 3.56259 38.2529 3.55215 38.2271 3.57303C38.2064 3.59391 38.1084 3.53649 38.0103 3.44253C37.9174 3.34858 37.7884 3.2233 37.7265 3.16066C37.6645 3.09802 37.4736 2.99363 37.3032 2.93099C37.0091 2.81094 36.9162 2.80572 35.3007 2.77962C34.3665 2.76396 33.5924 2.76396 33.5769 2.79006Z" fill="white"/>
<path id="Vector_6" d="M60.153 2.78846C60.1372 2.81454 60.095 2.81976 60.0581 2.80411C60.0211 2.79368 59.9737 2.79889 59.9473 2.81976C59.9209 2.84062 59.7838 2.90322 59.6413 2.95538C59.4989 3.00754 59.3248 3.09622 59.2562 3.15881C59.1824 3.2214 59.1243 3.25792 59.1191 3.24227C59.1085 3.21097 58.7234 3.62305 58.5388 3.87342C58.4596 3.97775 58.3278 4.26463 58.2486 4.50979L58.1062 4.95317L58.1431 7.13874C58.1748 9.3869 58.1801 9.50165 58.2434 9.50165C58.2645 9.50165 58.2961 9.56946 58.3172 9.65814C58.3383 9.7416 58.4069 9.89287 58.4755 9.99719C58.5493 10.0963 58.5915 10.1798 58.5704 10.1798C58.5546 10.1798 58.5968 10.2267 58.6654 10.2893C58.734 10.3467 58.792 10.4197 58.792 10.4458C58.792 10.4719 58.8184 10.4927 58.8447 10.4927C58.8764 10.4979 58.9819 10.5762 59.0821 10.6649C59.1824 10.7587 59.3881 10.8996 59.5305 10.9778C60.0106 11.223 60.3271 11.2543 62.01 11.2178C62.854 11.1969 63.5978 11.1708 63.6717 11.1604C63.8563 11.1343 64.5157 10.764 64.674 10.6023C64.7479 10.5292 64.9114 10.331 65.0433 10.1589C65.4442 9.63206 65.46 9.51209 65.4653 6.96139C65.4653 4.94795 65.4547 4.7393 65.3651 4.4472C65.3123 4.26985 65.2754 4.12901 65.2859 4.12901C65.2912 4.12901 65.2437 4.06642 65.1752 3.99339C65.1013 3.91515 65.0433 3.83169 65.0433 3.81083C65.0433 3.74823 64.579 3.31008 64.3258 3.13794C63.8669 2.81976 63.7983 2.80933 61.915 2.77803C60.9602 2.76238 60.1689 2.7676 60.153 2.78846ZM63.5926 3.26313C63.677 3.284 63.7666 3.33094 63.7877 3.36224C63.8088 3.39875 63.8299 3.40397 63.8299 3.3831C63.8299 3.30486 64.4472 3.75867 64.5896 3.94123C64.6687 4.04556 64.7215 4.12901 64.7057 4.12901C64.6845 4.12901 64.7215 4.17596 64.7795 4.23334C64.8428 4.29593 64.8745 4.36374 64.8586 4.38982C64.8428 4.41069 64.8534 4.44198 64.885 4.45242C64.9114 4.45763 64.9536 4.56195 64.9747 4.67671C65.0274 4.92709 65.0274 9.04263 64.98 9.26693C64.9272 9.5173 64.8375 9.7103 64.7795 9.7103C64.7531 9.7103 64.7268 9.74681 64.7268 9.78854C64.7268 9.96589 63.9566 10.6127 63.6875 10.6596C63.6348 10.6701 63.5767 10.6962 63.5609 10.717C63.5451 10.7431 62.7643 10.7587 61.8306 10.7587H60.1267L59.8312 10.6179C59.6624 10.5397 59.4409 10.404 59.3301 10.3154C59.1402 10.1693 58.8131 9.73638 58.8184 9.64249C58.8236 9.62163 58.7867 9.56425 58.7392 9.52252C58.697 9.47557 58.6548 9.3869 58.6496 9.31387C58.6443 9.24606 58.6285 9.12609 58.6179 9.04263C58.5599 8.71923 58.5546 5.2557 58.6074 4.96882C58.639 4.80711 58.6759 4.61933 58.6918 4.55152C58.7234 4.39504 58.8764 4.12901 58.9344 4.12901C58.9555 4.12901 58.9766 4.09772 58.9766 4.0612C58.9766 3.97253 59.3617 3.61261 59.6202 3.45613C60.0159 3.2214 60.2216 3.20054 61.8781 3.21097C62.7327 3.21619 63.5029 3.24227 63.5926 3.26313Z" fill="white"/>
<path id="Vector_7" d="M60.116 4.12812C59.8919 4.24473 59.4487 4.70058 59.4079 4.849C59.3977 4.8914 59.3774 4.98151 59.3621 5.05572C59.3264 5.21474 59.3213 9.04706 59.357 9.27498C59.3723 9.35979 59.4334 9.50821 59.4996 9.60362C59.5608 9.69903 59.5964 9.77324 59.5811 9.77324C59.5506 9.77324 59.8664 10.0542 60.0396 10.1867C60.1568 10.2662 60.2892 10.2768 61.7411 10.2927L63.2389 10.3086L63.5547 10.1496C63.7636 10.0489 63.9012 9.94815 63.9521 9.84744C63.9929 9.76263 64.0744 9.59832 64.1355 9.487C64.2374 9.28558 64.2425 9.21137 64.2374 7.18655C64.2374 5.51157 64.2221 5.05572 64.1661 4.9179C64.1253 4.81719 64.1049 4.73768 64.1151 4.73768C64.1253 4.73768 64.0795 4.67408 64.0132 4.59987C63.4834 3.9956 63.4987 4.0009 61.7666 4.0009C60.3809 4.0009 60.3402 4.0062 60.116 4.12812ZM63.188 4.52036C63.2389 4.55746 63.2746 4.57337 63.2746 4.55746C63.2746 4.46205 63.5955 4.76949 63.6821 4.94971C63.7789 5.14583 63.784 5.26774 63.784 7.16005C63.784 9.29618 63.784 9.26968 63.5242 9.58241C63.2949 9.85804 63.1727 9.87925 61.7768 9.87925C60.5491 9.87925 60.4828 9.87395 60.2689 9.75733C60.0906 9.66722 60.0091 9.57711 59.9021 9.35449L59.7594 9.06296V7.14945V5.23594L59.8919 4.96561C59.9989 4.74298 60.0702 4.66348 60.2842 4.55746L60.544 4.41965L61.8278 4.43025C62.8212 4.44085 63.1268 4.46205 63.188 4.52036Z" fill="white"/>
<path id="Vector_8" d="M28.5327 7.07638L28.5165 11.3867L28.7492 11.3655L28.9764 11.3496V7.06047V2.77133H28.76H28.5435L28.5327 7.07638Z" fill="white"/>
<path id="Vector_9" d="M51.2456 2.87862C51.0627 2.93607 50.8172 3.05098 50.697 3.12411C50.5089 3.24946 49.9864 3.73522 49.9864 3.78745C49.9864 3.7979 49.9133 3.92325 49.8245 4.06428C49.7357 4.2053 49.6521 4.40378 49.6364 4.4978C49.6207 4.59704 49.5894 4.7015 49.5685 4.72762C49.5423 4.75896 49.5215 5.73569 49.5215 6.89524C49.5162 8.56143 49.5319 9.06808 49.5894 9.28223C49.6312 9.4337 49.6521 9.55905 49.6416 9.55905C49.6312 9.55905 49.673 9.65829 49.7357 9.77843C49.7984 9.90378 49.8454 10.0187 49.8402 10.0396C49.8349 10.0657 49.8506 10.0814 49.8715 10.0814C49.8976 10.0814 49.9603 10.1597 50.0126 10.2537C50.0648 10.3478 50.1536 10.4522 50.2163 10.4783C50.2738 10.5044 50.3261 10.5462 50.3261 10.5776C50.3208 10.6037 50.4305 10.6977 50.5612 10.7865C50.6918 10.8701 50.8119 10.9589 50.8276 10.985C50.8433 11.0111 50.8746 11.032 50.8903 11.032C50.9844 11.032 51.1359 11.0894 51.1359 11.126C51.1359 11.1521 51.1777 11.1626 51.2299 11.1573C51.2769 11.1469 51.3919 11.1626 51.4755 11.1887C51.5643 11.2096 52.7712 11.2305 54.1662 11.2305H56.7002V11.0163V10.8022L54.0878 10.7969L51.4755 10.7865L51.1568 10.6194C50.9844 10.5306 50.7336 10.353 50.6082 10.2276C50.3156 9.94557 50.023 9.43892 50.0126 9.19865C50.0073 9.09419 49.9864 8.97406 49.9655 8.92705C49.9185 8.82259 49.9551 5.05146 50.0021 4.78507C50.0439 4.58137 50.2216 4.23142 50.441 3.93892C50.5559 3.78223 51.1881 3.30169 51.1881 3.3696C51.1881 3.38526 51.2404 3.36437 51.3083 3.32259C51.371 3.28602 51.4755 3.25469 51.5434 3.26513C51.6113 3.27035 51.674 3.25469 51.6897 3.22857C51.7054 3.20768 52.8443 3.18678 54.2237 3.18678H56.7263V2.97786V2.76893L54.1557 2.77415C51.721 2.77415 51.5643 2.77938 51.2456 2.87862Z" fill="white"/>
<path id="Vector_10" d="M33.7397 4.05433C33.6736 4.07522 33.6228 4.08044 33.6228 4.05955C33.6228 4.03866 33.6024 4.04911 33.5821 4.07522C33.5618 4.10655 33.4652 4.18489 33.3686 4.25278C33.1398 4.40424 32.9415 4.69147 32.8653 4.96304C32.8297 5.10405 32.8093 6.159 32.8093 8.26366V11.3606H33.0279H33.2415L33.2262 8.295C33.216 5.23984 33.2262 4.93693 33.3838 4.93693C33.4143 4.93693 33.4194 4.92126 33.4042 4.90037C33.3584 4.85337 33.5719 4.62358 33.6584 4.62358C33.6939 4.62358 33.7244 4.60269 33.7244 4.57658C33.7244 4.45124 34.0956 4.41468 35.3412 4.43035C36.3275 4.43557 36.6427 4.45646 36.663 4.50869C36.6732 4.54002 36.7037 4.56091 36.7291 4.54002C36.7545 4.52435 36.7749 4.54002 36.7749 4.56613C36.7749 4.59747 36.8054 4.62358 36.8409 4.62358C36.9375 4.62358 37.0951 4.81159 37.1155 4.9526C37.1256 5.01527 37.1562 5.08838 37.1816 5.1145C37.2121 5.14583 37.2324 6.32612 37.2324 8.25844V11.3502L37.4764 11.3711L37.7154 11.3867L37.7052 8.26366C37.7001 6.54546 37.6798 5.1145 37.6595 5.08838C37.6442 5.05705 37.6442 5.02049 37.6595 5.00482C37.6747 4.98916 37.6442 4.91082 37.5883 4.83248C37.5324 4.74892 37.4866 4.66536 37.4866 4.63925C37.4866 4.55047 37.0291 4.164 36.8308 4.08044C36.6681 4.01777 36.3783 4.0021 35.2446 4.0021C34.4769 4.00733 33.8007 4.02822 33.7397 4.05433Z" fill="white"/>
<path id="Vector_11" d="M51.6586 4.04146C51.5659 4.06808 51.3908 4.18523 51.2672 4.29704C51.1436 4.40886 51.0355 4.48873 51.02 4.47808C51.0097 4.46211 50.9685 4.53665 50.9325 4.63782C50.8964 4.73899 50.8501 4.82419 50.8295 4.82419C50.7574 4.82419 50.7522 5.09042 50.7471 7.19366V9.32353L50.9016 9.64301C51.0406 9.93054 51.087 9.97846 51.3857 10.1329L51.7153 10.3086H54.2079H56.6954V10.0956V9.88262H54.3006C52.4981 9.88262 51.8749 9.86665 51.7668 9.8134C51.5762 9.7282 51.3239 9.4673 51.2466 9.28093C51.1745 9.11054 51.1539 5.14367 51.226 5.14367C51.2466 5.14367 51.2672 5.09574 51.2724 5.03717C51.2827 4.89341 51.4732 4.68574 51.7101 4.55795C51.8904 4.45678 52.0191 4.45146 54.3109 4.45146H56.7263L56.7057 4.23847L56.6851 4.02549H54.3264C53.0286 4.02549 51.9367 4.01484 51.8955 4.00419C51.8595 3.99354 51.7513 4.00951 51.6586 4.04146Z" fill="white"/>
<path id="Vector_12" d="M30.4999 13.0987C30.4794 13.1201 30.3615 13.1467 30.2333 13.1627C30.1052 13.1734 29.9975 13.1894 29.9924 13.1948C29.9822 13.2054 29.9616 13.2161 29.9411 13.2214C29.9155 13.2268 29.8181 13.2641 29.7207 13.3068C29.6233 13.3442 29.5259 13.3708 29.5054 13.3655C29.4798 13.3602 29.4644 13.3762 29.4644 13.4082C29.4644 13.4349 29.4439 13.4616 29.4131 13.4616C29.2952 13.4616 28.7621 14.1552 28.7006 14.3954C28.6852 14.4541 28.6698 15.0517 28.6698 15.7294V16.9567L28.8185 17.2395C28.9056 17.3942 29.0645 17.6077 29.1722 17.7144C29.3875 17.9118 29.8386 18.1519 30.0693 18.1893C30.6998 18.2853 31.1202 18.3067 32.4633 18.312C33.4527 18.312 34.0064 18.3334 34.0166 18.3707C34.0269 18.3974 34.0628 18.4241 34.0986 18.4241C34.1345 18.4241 34.1909 18.4828 34.2217 18.5575C34.2986 18.7336 34.3037 19.7794 34.2268 19.9288C34.0986 20.1743 33.9756 20.185 31.4893 20.185H29.1568V20.3984V20.6172L31.6328 20.6119L34.1038 20.6065L34.3498 20.4198C34.7087 20.1476 34.7599 19.9929 34.7343 19.1498C34.7138 18.3761 34.6728 18.2533 34.3652 18.0559C34.1499 17.9172 33.7705 17.7837 33.7705 17.8478C33.7705 17.9011 30.8075 17.8745 30.5153 17.8211C30.4333 17.8051 30.2795 17.7784 30.1821 17.7624C30.0847 17.7464 29.8745 17.6664 29.7207 17.581C29.5003 17.4636 29.4029 17.3622 29.2696 17.1381C29.1773 16.9833 29.1158 16.8233 29.126 16.7859C29.1414 16.7486 29.1312 16.7059 29.1055 16.6899C29.0748 16.6685 29.0543 16.2683 29.0543 15.7507C29.0543 14.8809 29.1158 14.3687 29.2183 14.3687C29.244 14.3687 29.2491 14.3473 29.2337 14.3153C29.1927 14.246 29.6592 13.7657 29.7207 13.8084C29.7515 13.8297 29.772 13.8137 29.772 13.7817C29.772 13.7497 29.7976 13.739 29.8232 13.755C29.854 13.771 29.8745 13.7657 29.8745 13.7444C29.8745 13.707 30.2795 13.6163 30.6947 13.5629C30.7357 13.5576 31.7815 13.5416 33.017 13.5309L35.2623 13.5149L35.2469 13.3121L35.2316 13.1147L32.8837 13.088C31.5918 13.072 30.5204 13.0774 30.4999 13.0987Z" fill="white"/>
<path id="Vector_13" d="M53.4221 13.0802L51.0859 13.0907V13.3021V13.5134H53.3334C55.4192 13.5134 55.6174 13.5187 56.0398 13.6243C56.2901 13.6825 56.5404 13.7776 56.6029 13.8304C56.6603 13.8832 56.7177 13.9202 56.7281 13.9044C56.7698 13.8674 57.187 14.2583 57.187 14.3323C57.187 14.3693 57.2235 14.4168 57.2704 14.4327C57.3121 14.4485 57.333 14.4855 57.3173 14.5172C57.3017 14.5436 57.3069 14.5701 57.333 14.5701C57.3903 14.5701 57.5363 14.9452 57.5885 15.2093C57.6563 15.5475 57.6667 19.1718 57.6041 19.5099C57.5311 19.9009 57.2548 20.5032 57.1765 20.4556C57.1453 20.4345 57.1348 20.4398 57.1505 20.4715C57.2183 20.5824 56.6238 21.0315 56.4361 21.0104C56.41 21.0104 56.3735 21.0315 56.3579 21.0632C56.2796 21.19 55.706 21.227 54.0374 21.2164C52.3374 21.2006 52.3061 21.2006 52.0246 21.0738C51.8681 20.9998 51.6439 20.873 51.5344 20.7832C51.3154 20.6141 51.0181 20.1862 51.0651 20.1122C51.0807 20.0858 51.0651 20.0647 51.0286 20.0647C50.9921 20.0647 50.9816 20.0488 50.9973 20.0277C51.0181 20.0118 51.0025 19.959 50.9712 19.9167C50.8878 19.8164 50.8513 18.1838 50.9295 18.1363C50.9608 18.1204 50.9712 18.0834 50.9556 18.057C50.8669 17.9144 51.6387 16.9475 51.769 17.0321C51.7951 17.0479 51.816 17.0373 51.816 17.0056C51.816 16.9422 52.3791 16.7256 52.4417 16.7626C52.4678 16.7785 52.4991 16.7679 52.5199 16.7362C52.5617 16.6675 52.4574 16.6728 54.8613 16.6464L56.9367 16.6305L56.9106 15.9543C56.8741 15.1248 56.8845 15.1512 56.6447 14.8184C56.4986 14.6123 56.3683 14.5014 56.1545 14.401L55.8677 14.2583L53.4794 14.2531L51.0964 14.2478L51.0807 14.475L51.0599 14.7021L53.3803 14.6916C55.2732 14.681 55.7269 14.6916 55.8416 14.7497C55.9198 14.792 55.9876 14.8131 55.998 14.8025C56.0346 14.7708 56.3474 15.0667 56.3631 15.1512C56.3735 15.1935 56.4048 15.2463 56.4309 15.2674C56.4621 15.2886 56.4934 15.5105 56.5039 15.7588L56.5195 16.2079L54.6788 16.2184C53.6619 16.2184 52.7963 16.2237 52.7546 16.2184C52.7129 16.2184 52.5147 16.2554 52.3114 16.2977C52.1132 16.3452 51.9307 16.3822 51.9098 16.3769C51.8838 16.3717 51.8681 16.3928 51.8681 16.4192C51.8681 16.4509 51.842 16.472 51.8108 16.472C51.6648 16.472 51.3467 16.6781 51.0599 16.9634C50.8878 17.1324 50.7522 17.2909 50.7522 17.3068C50.7626 17.3702 50.6531 17.5815 50.6114 17.5815C50.5906 17.5815 50.5801 17.6238 50.5853 17.6713C50.5958 17.7189 50.5645 17.8721 50.5228 18.0042C50.4185 18.3212 50.4133 19.5099 50.5071 19.9062C50.5488 20.0647 50.5749 20.202 50.5697 20.2126C50.5645 20.2179 50.601 20.2971 50.6427 20.3817C50.6844 20.4662 50.7261 20.556 50.7313 20.5771C50.7366 20.6036 50.8721 20.7568 51.0338 20.9206C51.1954 21.0896 51.3206 21.2323 51.3102 21.2428C51.3049 21.2534 51.3258 21.264 51.3623 21.264C51.3936 21.264 51.5552 21.3432 51.7117 21.4383C51.8681 21.5334 52.0089 21.6074 52.0246 21.5968C52.0402 21.5915 52.2749 21.618 52.546 21.6497C53.0727 21.7183 55.852 21.6972 56.1962 21.6232C56.2953 21.6021 56.4048 21.581 56.4309 21.5757C56.4621 21.5704 56.6186 21.4912 56.7854 21.3961C56.9471 21.3062 57.0983 21.227 57.1192 21.2217C57.1922 21.2164 57.7293 20.5507 57.7762 20.4081C57.8023 20.3341 57.8388 20.276 57.8596 20.276C57.8805 20.276 57.8961 20.2232 57.9014 20.1598C57.9066 20.1017 57.9327 20.033 57.9535 20.0171C57.9744 20.0013 58.0004 19.9379 58.0057 19.8798C58.0161 19.8216 58.0369 19.6896 58.0578 19.5892C58.0787 19.4888 58.0995 18.485 58.1047 17.3596C58.1099 15.5316 58.1047 15.2833 58.0213 15.035C57.8961 14.6546 57.7136 14.2478 57.6146 14.1315C57.5728 14.084 57.552 14.0417 57.5676 14.0417C57.6146 14.0417 57.1974 13.6613 56.994 13.5187C56.8063 13.3866 56.1336 13.1436 55.9615 13.1436C55.9042 13.1436 55.8312 13.1277 55.8051 13.1013C55.7738 13.0802 54.7048 13.0696 53.4221 13.0802Z" fill="white"/>
<path id="Vector_14" d="M39.6229 13.1173C39.5967 13.1438 39.4658 13.1969 39.3296 13.2447C39.0259 13.3455 38.654 13.6003 38.4079 13.8764C38.1722 14.1365 37.8371 14.662 37.8371 14.7682C37.8371 14.8107 37.8109 14.9912 37.7742 15.1611C37.6957 15.5804 37.6957 19.2115 37.7742 19.6043C37.8057 19.7636 37.8319 19.9388 37.8371 19.9972C37.8423 20.0556 37.8633 20.114 37.879 20.1299C37.8947 20.1458 37.9837 20.2944 38.078 20.459C38.2246 20.7244 38.5702 21.1385 38.6436 21.1385C38.6593 21.1385 38.7169 21.1863 38.7693 21.25C38.8164 21.3084 38.874 21.3562 38.8949 21.3509C38.9106 21.3455 39.052 21.4092 39.2091 21.4836C39.6019 21.68 39.7852 21.6959 41.4872 21.6906C43.0687 21.6853 43.2729 21.6641 43.6657 21.4305C43.7862 21.3615 43.9014 21.319 43.9223 21.3402C43.9485 21.3615 43.9485 21.3455 43.9276 21.3084C43.9066 21.2765 43.9118 21.2447 43.9433 21.2447C44.0113 21.2447 44.6817 20.5705 44.6502 20.5386C44.6345 20.528 44.6607 20.4856 44.7078 20.4484C44.7497 20.4112 44.7864 20.3475 44.7864 20.3051C44.7864 20.2626 44.8283 20.1564 44.8754 20.0609C44.9854 19.8485 44.9959 19.7954 45.0064 19.4769C45.0116 19.3389 45.0273 19.2487 45.043 19.2752C45.0587 19.3017 45.0744 18.4418 45.0744 17.3694C45.0744 16.2971 45.0587 15.4371 45.043 15.4636C45.0273 15.4902 45.0168 15.4106 45.0221 15.2885C45.0221 15.1611 45.0116 15.023 44.9906 14.9806C44.5507 13.9879 44.2784 13.6587 43.6343 13.3508C43.4196 13.25 43.2049 13.1438 43.1577 13.1226C43.0425 13.0642 39.6857 13.0589 39.6229 13.1173ZM42.8278 13.5472C42.9692 13.5738 43.142 13.611 43.2101 13.6216C43.2782 13.6375 43.4353 13.7171 43.5505 13.7914C43.7652 13.9348 44.2575 14.3966 44.1946 14.3966C44.1789 14.3966 44.2156 14.455 44.2837 14.5293C44.5507 14.8213 44.5769 15.0814 44.5612 17.4756C44.5507 19.2327 44.535 19.7105 44.4774 19.8379C44.4355 19.9228 44.3989 20.0237 44.3884 20.0609C44.3622 20.1989 44.0375 20.613 43.8281 20.7775C43.7076 20.8784 43.4929 21.0164 43.3463 21.0854C43.0897 21.2181 43.0635 21.2181 41.4872 21.2341C39.9266 21.25 39.4448 21.2128 39.4448 21.0748C39.4448 21.0483 39.4239 21.043 39.3924 21.0589C39.3663 21.0748 39.3401 21.0642 39.3401 21.0376C39.3401 21.0058 39.2929 20.9793 39.2406 20.9793C39.1254 20.9793 38.5388 20.4325 38.5912 20.3741C38.6069 20.3582 38.5964 20.3422 38.565 20.3422C38.4969 20.3422 38.2665 19.9175 38.3294 19.9175C38.3555 19.9175 38.3398 19.8963 38.2979 19.8698C38.256 19.8432 38.2194 19.737 38.2194 19.6309C38.2141 19.5247 38.1984 19.4398 38.1775 19.4398C38.1565 19.4398 38.1408 18.5055 38.1408 17.3694C38.1408 16.0688 38.1565 15.3044 38.188 15.3256C38.2194 15.3415 38.2246 15.3203 38.2089 15.2778C38.1932 15.2301 38.1932 15.1504 38.2141 15.0974C38.2403 15.0496 38.2613 14.9806 38.2717 14.9434C38.3032 14.7788 38.5336 14.386 38.7012 14.2108C39.0678 13.8339 39.4605 13.6216 39.9685 13.5313C40.2356 13.4835 42.5817 13.4942 42.8278 13.5472Z" fill="white"/>
<path id="Vector_15" d="M39.5776 14.2099C39.5242 14.237 39.4815 14.2479 39.4815 14.2316C39.4815 14.2045 39.2574 14.3944 39.0813 14.568C39.044 14.606 39.0013 14.6223 38.9799 14.6114C38.9639 14.5952 38.9586 14.6006 38.9693 14.6169C38.9853 14.6332 38.9372 14.7471 38.8625 14.8665C38.6437 15.2192 38.6171 15.5393 38.6437 17.6175C38.6758 19.6306 38.6758 19.6849 38.7345 19.6849C38.7558 19.6849 38.8145 19.7772 38.8625 19.8911C38.9586 20.1082 39.1667 20.3035 39.4815 20.4771C39.6469 20.5694 39.823 20.5857 41.1464 20.6074C41.9575 20.6236 42.6512 20.6182 42.6939 20.6019C42.7312 20.5802 42.8646 20.5205 42.9927 20.4663C43.2008 20.3795 43.6864 19.9237 43.7024 19.7934C43.7131 19.7283 43.7077 19.75 43.7931 19.3322C43.8465 19.088 43.8571 18.5508 43.8411 17.216C43.8251 16.2284 43.8038 15.3603 43.7931 15.2843C43.7291 14.8828 43.4142 14.4704 43.0034 14.2587C42.8219 14.1665 42.6725 14.1556 41.2371 14.1556C40.2766 14.1556 39.6309 14.1774 39.5776 14.2099ZM42.6832 14.644C42.6832 14.6711 42.7099 14.682 42.7366 14.6657C42.8379 14.6006 43.2542 15.0835 43.3182 15.3331C43.3609 15.4905 43.3769 16.1688 43.3662 17.509L43.3502 19.457L43.1901 19.6958C42.8913 20.1244 42.8059 20.1461 41.2104 20.1461C40.1112 20.1461 39.8017 20.1299 39.7323 20.0702C39.679 20.0322 39.6416 20.0159 39.6416 20.043C39.6416 20.0647 39.5669 20.0159 39.4762 19.9237C39.1667 19.6252 39.1614 19.5981 39.1614 17.3354V15.268L39.2894 15.0455C39.4068 14.8502 39.7483 14.568 39.7483 14.6711C39.7483 14.6983 39.775 14.6874 39.8124 14.6494C39.8977 14.5626 42.6832 14.5572 42.6832 14.644Z" fill="white"/>
<path id="Vector_16" d="M61.9707 13.1353C61.8385 13.1724 61.7114 13.2094 61.691 13.22C61.6707 13.2253 61.6046 13.2518 61.5385 13.2783C61.4723 13.3048 61.4113 13.326 61.4011 13.326C61.3859 13.326 61.2384 13.4478 60.9231 13.7339C60.7502 13.8876 60.2671 14.5445 60.323 14.5445C60.3383 14.5445 60.2976 14.6716 60.2416 14.82C60.1348 15.0955 60.1298 15.1643 60.1145 18.3695L60.0992 21.6382L60.2264 21.6753C60.2925 21.6912 60.3942 21.6965 60.4451 21.6859C60.5315 21.67 60.5366 21.5217 60.5468 18.4913C60.5569 16.7431 60.5773 15.2756 60.5925 15.2332C60.6129 15.1908 60.6332 15.0849 60.6434 15.0054C60.6688 14.82 60.801 14.5445 60.8722 14.5445C60.9028 14.5445 60.9129 14.5233 60.8977 14.5021C60.857 14.4332 61.3147 13.9458 61.5639 13.7869C61.7571 13.6598 61.9453 13.5962 62.2148 13.5644C62.2708 13.5591 62.3521 13.5379 62.3928 13.5167C62.4335 13.5008 63.1099 13.4796 63.888 13.4743L65.3119 13.4584V13.273V13.0876L63.7608 13.077C62.6268 13.0717 62.1487 13.0876 61.9707 13.1353Z" fill="white"/>
<path id="Vector_17" d="M30.1947 14.2491C29.9868 14.356 29.9158 14.4361 29.8093 14.6872C29.6977 14.9543 29.7079 16.2205 29.8245 16.4984C29.8702 16.6052 29.9006 16.7121 29.8955 16.7334C29.8904 16.7602 29.9107 16.7655 29.9361 16.7495C29.9614 16.7281 30.002 16.7441 30.0223 16.7762C30.0375 16.8082 30.1491 16.883 30.2657 16.9365C30.4584 17.0219 30.646 17.0326 32.1623 17.0433C33.0903 17.0433 33.8358 17.07 33.8206 17.0914C33.8054 17.1128 33.8409 17.1235 33.8916 17.1074C34.0184 17.0754 34.5306 17.2303 34.6269 17.3372C34.6726 17.3799 34.7081 17.4013 34.7081 17.3799C34.7081 17.3104 35.0123 17.6417 35.1188 17.8233C35.1746 17.9195 35.2304 18.0638 35.2405 18.1439C35.2507 18.2294 35.2608 18.3042 35.2659 18.3202C35.276 18.3576 35.276 20.1046 35.2608 20.1367C35.2557 20.1527 35.2557 20.1848 35.2608 20.2062C35.271 20.2863 35.1137 20.5588 34.9515 20.7404C34.8551 20.8473 34.6523 20.9808 34.4798 21.0503C34.1756 21.1785 34.1654 21.1785 31.6552 21.1945L29.1298 21.2106V21.451V21.6914L31.6045 21.67C34.0234 21.6487 34.2516 21.638 34.5153 21.5311C34.5863 21.5044 34.6624 21.4937 34.6776 21.5098C34.6928 21.5311 34.7081 21.5204 34.7081 21.4884C34.7081 21.4563 34.7588 21.4189 34.8247 21.3976C34.8855 21.3815 34.9363 21.3708 34.9363 21.3762C34.9363 21.3976 35.1847 21.1732 35.3014 21.0449C35.5042 20.8206 35.6259 20.5748 35.6564 20.3397C35.6665 20.2168 35.6868 20.0993 35.6969 20.0833C35.7071 20.0619 35.7172 19.6879 35.7223 19.2498C35.7223 18.1012 35.6158 17.6737 35.2152 17.2517C35.0174 17.0433 34.6168 16.7708 34.4798 16.7495C34.4393 16.7441 34.3936 16.7228 34.3734 16.7067C34.3581 16.6854 34.3125 16.6854 34.277 16.696C34.2415 16.7121 34.1959 16.7014 34.1806 16.6693C34.1604 16.6373 33.5214 16.6159 32.4717 16.6106C31.5132 16.6106 30.6866 16.5838 30.5446 16.5518C30.1896 16.4716 30.144 16.3541 30.144 15.5687C30.144 14.5162 30.0121 14.5697 32.5173 14.5804C33.5975 14.5857 34.632 14.5857 34.8247 14.5857L35.1645 14.5804V14.3667V14.1529L32.7709 14.1583C30.646 14.1636 30.3519 14.1743 30.1947 14.2491Z" fill="white"/>
<path id="Vector_18" d="M61.8519 14.2277C61.7664 14.2597 61.7022 14.3024 61.7022 14.3291C61.7022 14.3505 61.6808 14.3718 61.6541 14.3718C61.5953 14.3718 61.2209 14.7402 61.2209 14.7989C61.2209 14.8203 61.1728 14.895 61.1193 14.9698C61.0177 15.0979 61.0123 15.21 61.023 18.3813L61.0337 21.6594L61.237 21.6754L61.4348 21.6914V18.5949C61.4348 16.5554 61.4509 15.4877 61.4883 15.4663C61.5204 15.4449 61.5311 15.4076 61.515 15.3809C61.4936 15.3542 61.499 15.3008 61.5257 15.2634C61.5471 15.2314 61.5685 15.1727 61.5739 15.1353C61.5899 15.0445 61.9268 14.6922 61.9749 14.7189C61.9963 14.7349 62.0231 14.7135 62.0338 14.6815C62.0552 14.6281 62.4402 14.6067 63.6862 14.5961L65.312 14.5801V14.3665V14.1529L63.6542 14.1636C62.6541 14.169 61.9375 14.1957 61.8519 14.2277Z" fill="white"/>
<path id="Vector_19" d="M52.6109 17.2562C52.5743 17.2834 52.4698 17.3106 52.381 17.3161C52.287 17.327 52.1877 17.3651 52.1563 17.3977C52.1198 17.4358 52.0675 17.463 52.0414 17.463C52.01 17.4685 51.916 17.5664 51.8272 17.6862C51.7436 17.8059 51.6495 17.9311 51.6182 17.9692C51.545 18.0617 51.5137 18.3393 51.5137 18.9053C51.5189 19.7598 51.7801 20.1462 52.5534 20.4238C52.7206 20.4837 55.8451 20.4673 56.0019 20.402C56.0803 20.3748 56.1639 20.3476 56.1848 20.3476C56.2422 20.3476 56.6132 19.9231 56.7438 19.7217C56.8327 19.5802 56.8431 19.4278 56.8588 18.4046L56.8797 17.2453L54.7793 17.2344C53.6245 17.2236 52.6527 17.2344 52.6109 17.2562ZM56.446 18.4264C56.446 18.84 56.4199 19.2645 56.3938 19.3679C56.3467 19.5639 56.0594 19.9068 55.9235 19.934C55.8817 19.9394 55.7459 19.9775 55.6205 20.0156C55.4533 20.0646 55.0405 20.0755 54.0791 20.0537C52.637 20.0265 52.5848 20.0211 52.5848 19.9449C52.5848 19.9176 52.5691 19.9122 52.5534 19.9285C52.4803 20.0047 52.2034 19.7652 52.1145 19.5584C52.0048 19.2972 51.963 18.225 52.0623 18.225C52.0936 18.225 52.1093 18.2032 52.0936 18.1815C52.078 18.1542 52.1198 18.0726 52.1877 17.991C52.428 17.6971 52.5012 17.6862 54.5598 17.6807H56.4512L56.446 18.4264Z" fill="white"/>
</g>
</g>
</svg>
